<?xml version="1.0" encoding="UTF-8"?>
<svg id="Layer_1" data-name="Layer 1" xmlns="http://www.w3.org/2000/svg" viewBox="0 0 19.96 20">
  <defs>
    <style>
      .cls-1 {
        fill: #edebd7;
        stroke-width: 0px;
      }
    </style>
  </defs>
  <path class="cls-1" d="M19.69,9.29l-2-2L10.69.29c-.39-.39-1.02-.39-1.41,0L2.28,7.29l-2,2c-.38.4-.37,1.03.02,1.41.39.37,1,.37,1.39,0l.29-.29v7.59c0,1.1.9,2,2,2h3c.55,0,1-.45,1-1v-4c0-.55.45-1,1-1h2c.55,0,1,.45,1,1v4c0,.55.45,1,1,1h3c1.1,0,2-.9,2-2v-7.59l.29.29c.4.38,1.03.37,1.41-.02.37-.39.37-1,0-1.39h.01Z"/>
</svg>